<?xml version="1.0" encoding="UTF-8" standalone="no"?>
<!-- Created with Inkscape (http://www.inkscape.org/) -->

<svg
   width="91.958397mm"
   height="95.514618mm"
   viewBox="0 0 91.958397 95.514618"
   version="1.1"
   id="svg1"
   xml:space="preserve"
   inkscape:version="1.4.3 (0d15f75, 2025-12-25)"
   sodipodi:docname="Logo&amp;Name_HEdader.svg"
   xmlns:inkscape="http://www.inkscape.org/namespaces/inkscape"
   xmlns:sodipodi="http://sodipodi.sourceforge.net/DTD/sodipodi-0.dtd"
   xmlns="http://www.w3.org/2000/svg"
   xmlns:svg="http://www.w3.org/2000/svg"><sodipodi:namedview
     id="namedview1"
     pagecolor="#505050"
     bordercolor="#eeeeee"
     borderopacity="1"
     inkscape:showpageshadow="0"
     inkscape:pageopacity="0"
     inkscape:pagecheckerboard="0"
     inkscape:deskcolor="#505050"
     inkscape:document-units="mm"
     inkscape:zoom="0.73049944"
     inkscape:cx="257.35817"
     inkscape:cy="375.08585"
     inkscape:window-width="1920"
     inkscape:window-height="991"
     inkscape:window-x="-9"
     inkscape:window-y="-9"
     inkscape:window-maximized="1"
     inkscape:current-layer="layer1" /><defs
     id="defs1" /><g
     inkscape:label="Layer 1"
     inkscape:groupmode="layer"
     id="layer1"
     transform="translate(-82.832154,-51.494469)"><path
       style="fill:#000000"
       d="m 170.74919,115.41888 c -1.18822,-0.51771 -1.4488,-1.38148 -1.4488,-4.80249 0,-2.85387 -0.0308,-3.03025 -0.52916,-3.03025 -0.47038,0 -0.52917,-0.17639 -0.52917,-1.5875 0,-1.41112 0.0588,-1.5875 0.52917,-1.5875 0.43916,0 0.52916,-0.17639 0.52916,-1.03707 0,-1.01669 0.0273,-1.04605 1.38906,-1.49375 0.76399,-0.25117 1.53789,-0.5116 1.7198,-0.57874 0.2418,-0.0892 0.33072,0.31239 0.33072,1.49375 v 1.61581 h 0.92605 0.92604 v 1.5875 1.5875 h -0.93597 -0.93597 l 0.0761,2.44739 0.0761,2.4474 0.95911,0.0801 0.95912,0.0802 -0.39637,1.5735 -0.39636,1.5735 -1.22421,-0.0104 c -0.67332,-0.006 -1.58428,-0.16724 -2.02437,-0.35898 z"
       id="path12" /><path
       style="fill:#000000"
       d="m 141.25456,110.07802 v -5.7102 l 6.01927,0.0878 c 4.38659,0.064 6.18682,0.18328 6.63698,0.43982 1.12874,0.64325 1.36667,1.77812 1.36667,6.51865 v 4.37412 h -1.7198 -1.71979 v -3.78349 c 0,-4.00824 -0.11547,-4.41854 -1.24354,-4.41854 h -0.60854 v 4.10104 4.10104 h -1.71979 -1.71979 v -4.10104 -4.10104 h -0.92605 -0.92604 v 4.10104 4.10104 h -1.71979 -1.71979 z"
       id="path11" /><path
       style="fill:#000000"
       d="m 122.99831,110.09972 v -5.68854 h 1.71979 c 0.94589,0 1.71979,0.11611 1.71979,0.25803 0,0.16766 0.23771,0.16766 0.67869,0 1.30216,-0.49508 1.43819,-0.37536 1.43529,1.26332 l -0.003,1.52135 -1.05564,0.44338 -1.05565,0.44337 v 3.72381 3.72382 h -1.71979 -1.71979 z"
       id="path10" /><path
       style="fill:#000000"
       d="m 110.29832,110.23201 v -5.55625 h 1.98437 1.98437 v 1.88251 1.88251 l 0.72761,-0.46155 c 1.4967,-0.94943 2.18281,-1.78655 2.18281,-2.66321 0,-0.5294 -0.15731,-0.90859 -0.41851,-1.00883 -0.23019,-0.0883 -1.89706,-0.1606 -3.70417,-0.1606 -2.20608,0 -3.28565,-0.0953 -3.28565,-0.29001 0,-0.1595 0.18704,-0.93341 0.41565,-1.71979 l 0.41565,-1.42978 h 3.62933 c 3.23757,0 3.75676,0.0643 4.80986,0.59531 1.40924,0.71064 2.10815,1.92122 2.10036,3.63802 -0.0114,2.51099 -1.74314,4.74156 -5.01678,6.46181 l -1.85616,0.97538 v 1.70536 1.70537 h -1.98437 -1.98437 z"
       id="path9" /><path
       style="fill:#000000"
       d="m 132.88469,115.54521 c -2.71815,-1.65744 -4.26267,-7.20256 -2.66661,-9.57355 0.90856,-1.34968 1.81106,-1.68062 4.60093,-1.68712 2.04454,-0.005 2.54597,0.0809 3.175,0.54232 1.68277,1.23441 2.11023,3.68876 1.16911,6.7126 -0.85535,2.74824 -2.62311,4.5114 -4.52314,4.5114 -0.50933,0 -1.29921,-0.22754 -1.75529,-0.50565 z m 2.63075,-3.6699 c 0.71237,-1.21975 0.89748,-3.53673 0.32805,-4.10616 -0.56219,-0.56218 -1.8279,-0.57912 -2.37524,-0.0318 -0.97984,0.97984 0.14978,5.43702 1.28228,5.05952 0.15481,-0.0516 0.49902,-0.46631 0.76491,-0.92158 z"
       id="path8" /><path
       style="fill:#000000"
       d="m 157.65873,111.92115 v -7.57127 l 3.52693,0.10307 c 3.88833,0.11362 4.53229,0.33378 5.4657,1.86866 0.77391,1.27258 0.89813,2.63145 0.3989,4.36367 -0.57281,1.98758 -2.55796,4.0182 -4.58707,4.69217 l -1.36488,0.45334 v 1.83082 1.83081 h -1.71979 -1.71979 z m 4.87915,-0.12341 c 1.03468,-0.90845 1.56522,-2.3414 1.21142,-3.27196 -0.26083,-0.68603 -0.76789,-0.9396 -1.87888,-0.9396 h -0.77211 v 2.51354 c 0,1.43889 0.10918,2.51354 0.25538,2.51354 0.14045,0 0.67334,-0.36698 1.18419,-0.81552 z"
       id="path7" /><path
       style="fill:#000000"
       d="m 153.20467,131.59553 c -0.1644,-0.65288 -0.37332,-1.38098 -0.46428,-1.618 -0.14167,-0.36921 0.0661,-0.43094 1.45044,-0.43094 0.8887,0 1.61581,-0.0819 1.61581,-0.18197 0,-0.10008 -0.55441,-0.88765 -1.23203,-1.75015 -1.62105,-2.06334 -2.07084,-3.33522 -1.58797,-4.49039 0.58503,-1.39957 1.06325,-1.62915 3.41343,-1.63868 l 2.12033,-0.009 0.3589,1.19062 c 0.53861,1.78683 0.50958,1.85209 -0.8237,1.85209 -0.65484,0 -1.19062,0.12338 -1.19062,0.27417 0,0.1508 0.58424,1.03645 1.29831,1.9681 1.45507,1.89843 1.78661,2.90956 1.36895,4.17508 -0.41489,1.25713 -1.16601,1.60391 -3.75265,1.73254 l -2.27602,0.11318 z"
       id="path6" /><path
       style="fill:#000000"
       d="m 142.31289,125.18097 v -7.54063 h 1.71324 1.71324 l 0.0727,4.29948 0.0727,4.29948 1.02844,-2.4474 1.02845,-2.44739 h 1.93277 1.93277 l -1.17444,2.53041 -1.17444,2.5304 1.32208,3.03656 c 0.72714,1.6701 1.32208,3.09126 1.32208,3.15813 0,0.0669 -0.86321,0.1201 -1.91823,0.11829 l -1.91823,-0.003 -0.739,-1.91493 c -0.40644,-1.05322 -0.96235,-2.39119 -1.23535,-2.97327 l -0.49636,-1.05833 -0.0214,2.97656 -0.0214,2.97656 h -1.7198 -1.71979 z"
       id="path5" /><path
       style="fill:#000000"
       d="m 137.42317,132.30496 c -4.09306,-1.5222 -5.64953,-8.18519 -2.40817,-10.309 0.40658,-0.26641 1.47508,-0.49118 2.75052,-0.5786 l 2.08565,-0.14295 0.30005,1.19161 c 0.16503,0.65538 0.37447,1.38553 0.46542,1.62255 0.14155,0.36886 -0.0647,0.43094 -1.43154,0.43094 -1.83323,0 -2.42846,0.39696 -2.42846,1.61954 0,1.7033 1.61845,3.40435 3.24115,3.40655 0.8354,0.001 0.82823,-0.0317 0.37606,1.72078 -0.30647,1.18777 -0.42083,1.3284 -1.11938,1.3766 -0.42792,0.0295 -1.252,-0.12259 -1.8313,-0.33802 z"
       id="path4" /><path
       style="fill:#000000"
       d="m 126.62095,132.34385 c -2.54101,-0.68315 -4.17479,-3.02865 -4.34435,-6.23684 -0.0873,-1.65098 -0.0153,-2.12643 0.42807,-2.8299 0.9934,-1.576 1.61788,-1.79059 5.50694,-1.89242 l 3.51795,-0.0921 v 5.7145 5.7145 l -1.91823,-0.0179 c -1.05503,-0.01 -2.4907,-0.17176 -3.19038,-0.35988 z m 1.66903,-5.3108 v -2.51354 h -0.90715 c -1.33042,0 -1.82664,0.624 -1.66147,2.08934 0.1066,0.94578 0.33597,1.38374 1.08345,2.06876 0.52153,0.47794 1.06904,0.86898 1.2167,0.86898 0.16273,0 0.26847,-0.98998 0.26847,-2.51354 z"
       id="path3" /><path
       style="fill:#000000"
       d="m 110.29832,127.16534 v -5.55625 h 1.98437 1.98437 v 1.88251 1.88252 l 0.72761,-0.46156 c 1.4967,-0.94943 2.18281,-1.78654 2.18281,-2.6632 0,-0.52941 -0.15731,-0.9086 -0.41851,-1.00884 -0.23019,-0.0883 -1.89706,-0.1606 -3.70417,-0.1606 -2.20608,0 -3.28565,-0.0953 -3.28565,-0.29 0,-0.15951 0.18704,-0.93341 0.41565,-1.71979 l 0.41565,-1.42979 h 3.62933 c 3.23757,0 3.75676,0.0643 4.80986,0.59531 1.40924,0.71064 2.10815,1.92122 2.10036,3.63802 -0.0114,2.51099 -1.74314,4.74156 -5.01678,6.46181 l -1.85616,0.97538 v 1.70537 1.70536 h -1.98437 -1.98437 z"
       id="path2" /><g
       id="g13"
       style="fill:#e30000;fill-opacity:1"><path
         style="fill:#e30000;fill-opacity:1"
         d="m 82.845148,75.829869 0.06879,-12.1771 7.011458,-3.39725 c 3.8563,-1.86849 9.49888,-4.60411 12.539064,-6.07915 3.04018,-1.47505 5.57026,-2.6819 5.6224,-2.6819 0.0521,0 0.0948,5.51508 0.0948,12.25572 v 12.25573 l -3.50573,1.6824 c -1.92815,0.92531 -6.184644,2.98412 -9.458864,4.57512 -9.141226,4.44188 -11.902245,5.74353 -12.183006,5.74353 -0.164464,0 -0.232806,-4.40544 -0.188904,-12.1771 z"
         id="path13" /><path
         style="fill:#e30000;fill-opacity:1"
         d="m 83.310812,129.84965 v -17.15944 l 2.84427,-1.38575 c 1.564354,-0.76216 5.225484,-2.53565 8.135844,-3.94108 2.91037,-1.40543 7.233924,-3.50795 9.607914,-4.67227 l 4.31633,-2.11693 0.0494,-12.302861 0.0494,-12.30285 1.5875,-0.79489 c 1.91381,-0.95829 11.57294,-5.65065 18.58698,-9.02949 l 5.09323,-2.45353 v 12.2929 12.2929 l -2.18281,1.02895 c -1.20055,0.56593 -5.33797,2.5661 -9.19427,4.44483 -3.85631,1.87872 -8.46998,4.11276 -10.25261,4.96453 l -3.24114,1.548671 v 17.38362 17.38362 l -1.52136,0.6831 c -0.83674,0.3757 -4.14073,1.95421 -7.342194,3.50779 -12.974031,6.29594 -16.098603,7.78762 -16.312481,7.78762 -0.123185,0 -0.223972,-7.72175 -0.223973,-17.15944 z"
         id="path1" /></g></g></svg>
